<svg width="120" height="120" viewBox="0 0 120 120" fill="none" xmlns="http://www.w3.org/2000/svg">
<path d="M80.4719 47.6477C85.1003 63.53 76.5422 70.4125 76.6225 75.1378C76.6708 77.6866 77.8646 83.7292 77.8646 83.7292L62.0397 90.3932C62.0397 90.3932 58.5488 85.3179 56.7417 83.5036C53.4155 80.1513 42.5003 81.469 34.3379 67.0749C28.9723 57.6202 29.8163 38.7667 46.5641 31.708C63.3119 24.6493 77.4242 37.2169 80.4719 47.6477Z" fill="url(#paint0_linear_176_23245)" fill-opacity="0.88"/>
<path d="M51.418 66.4255L50.9475 66.7358L66.2693 89.9085L66.7398 89.5982L51.418 66.4255Z" fill="#120228"/>
<path d="M68.1122 59.3732L74.0262 86.5071L74.5768 86.3874L68.6628 59.2535L68.1122 59.3732Z" fill="#120228"/>
<path d="M63.2661 71.2302C62.0499 71.7424 60.4129 71.2877 58.6429 69.953C58.5345 69.8702 58.4238 69.7822 58.3184 69.692C58.255 69.9833 58.1292 70.2574 57.9498 70.4956C57.7704 70.7338 57.5415 70.9304 57.2789 71.0719C54.966 72.0459 51.9898 67.6095 51.8626 67.4245L52.0954 67.2653C52.1173 67.3172 55.0694 71.6964 57.1692 70.8122C57.4085 70.6731 57.6143 70.4833 57.7722 70.2561C57.93 70.029 58.0362 69.77 58.0831 69.4974C56.0265 67.745 54.51 65.3002 54.6849 63.9173C54.7062 63.6881 54.7909 63.4694 54.9296 63.2857C55.0682 63.102 55.2553 62.9605 55.4699 62.877C56.4679 62.4568 57.3693 63.0254 57.964 64.433C58.5747 66.0146 58.7226 67.7368 58.3904 69.3986C58.5298 69.5112 58.6692 69.6238 58.8116 69.729C59.7832 70.4639 61.6395 71.5971 63.1468 70.9623C64.1552 70.5377 64.8322 69.3288 65.0552 67.5525C65.0778 67.3839 65.0936 67.2182 65.1023 67.0554C64.7766 66.9041 64.4681 66.7181 64.1823 66.5007C62.4994 65.2272 61.2523 62.8402 61.4432 61.2487C61.4603 60.9741 61.5525 60.7095 61.7097 60.4837C61.8668 60.2579 62.083 60.0795 62.3347 59.9678C62.5293 59.8854 62.7433 59.8593 62.9522 59.8925C63.161 59.9257 63.3564 60.0169 63.516 60.1556C64.7215 61.0673 65.5509 64.1318 65.3975 66.8699C65.71 67.0017 66.0455 67.0706 66.3846 67.0727C66.7238 67.0747 67.0599 67.0099 67.3739 66.8819C69.1723 66.1246 68.5014 60.7542 68.4921 60.703L68.7701 60.6655C68.8007 60.8973 69.4795 66.3011 67.4836 67.1416C66.8108 67.4217 66.0555 67.4307 65.3759 67.1666C65.3652 67.3057 65.3511 67.4462 65.3335 67.5882C65.1539 68.8874 64.6755 70.6245 63.2565 71.222L63.2661 71.2302ZM62.4539 60.2357C62.247 60.3274 62.0698 60.4748 61.9421 60.6615C61.8144 60.8482 61.7414 61.0667 61.7311 61.2926C61.5535 62.7562 62.7765 65.086 64.3671 66.3005C64.609 66.4826 64.867 66.6422 65.1379 66.7774C65.2625 64.1737 64.4702 61.2404 63.3635 60.4033C63.2437 60.2915 63.0944 60.2163 62.9332 60.1866C62.772 60.1569 62.6057 60.1739 62.4539 60.2357ZM55.5723 63.1337C55.4041 63.1983 55.2576 63.3089 55.1495 63.4529C55.0414 63.5969 54.9761 63.7684 54.9611 63.9478C54.8046 65.2006 56.2463 67.5117 58.1589 69.184C58.4395 67.6226 58.2832 66.0139 57.7071 64.535C57.4021 63.8131 56.7127 62.6596 55.5745 63.1389L55.5723 63.1337Z" fill="#120228"/>
<path d="M79.4349 82.2631L59.9 90.4905L61.5108 94.3037L81.0457 86.0763L79.4349 82.2631Z" fill="#120228"/>
<path d="M81.3053 86.6911L61.7704 94.9185L63.3811 98.7317L82.916 90.5043L81.3053 86.6911Z" fill="#120228"/>
<path d="M83.1755 91.1203L63.6406 99.3477L65.2514 103.161L84.7863 94.9335L83.1755 91.1203Z" fill="#120228"/>
<path d="M36.1414 60.6289C33.1902 52.745 35.1001 41.921 42.9903 37.7176C36.9051 43.7301 35.6682 52.4233 36.1414 60.6289Z" fill="white"/>
<path d="M44.8406 26.689C43.6542 24.8798 42.8057 22.8708 42.3362 20.7596C43.52 22.5702 44.3683 24.5787 44.8406 26.689Z" fill="#120228"/>
<path d="M32.6746 35.8997C30.7474 34.9165 29.0143 33.5926 27.5593 31.9922C29.4853 32.9774 31.2181 34.3011 32.6746 35.8997Z" fill="#120228"/>
<path d="M26.7544 49.9536C24.5931 50.0656 22.4292 49.785 20.3678 49.1252C22.529 49.0147 24.6926 49.2953 26.7544 49.9536Z" fill="#120228"/>
<path d="M28.6587 65.075C26.8461 66.2576 24.8352 67.1046 22.7221 67.5755C24.5333 66.3904 26.5446 65.5432 28.6587 65.075Z" fill="#120228"/>
<path d="M37.8795 77.2247C36.8977 79.1516 35.574 80.8843 33.9728 82.3388C34.9562 80.4129 36.2797 78.6804 37.8795 77.2247Z" fill="#120228"/>
<path d="M85.1842 57.97C87.3454 57.8604 89.5088 58.141 91.5708 58.7983C89.4095 58.9114 87.2454 58.6307 85.1842 57.97Z" fill="#120228"/>
<path d="M83.2797 42.848C85.0905 41.6661 87.0997 40.8198 89.2111 40.3497C87.4017 41.5341 85.392 42.3805 83.2797 42.848Z" fill="#120228"/>
<path d="M74.059 30.6981C75.0402 28.7729 76.362 27.0411 77.9605 25.5863C76.9802 27.512 75.6583 29.244 74.059 30.6981Z" fill="#120228"/>
<path d="M59.9888 24.7856C59.8761 22.6253 60.1548 20.4627 60.8115 18.4018C60.9219 20.562 60.6432 22.7242 59.9888 24.7856Z" fill="#120228"/>
<defs>
<linearGradient id="paint0_linear_176_23245" x1="46.5658" y1="31.7073" x2="86.9725" y2="101.957" gradientUnits="userSpaceOnUse">
<stop stop-color="#FF8C6E"/>
<stop offset="1" stop-color="#B47DFA"/>
</linearGradient>
</defs>
</svg>
