<svg width="803" height="441" viewBox="0 0 803 441" fill="none" xmlns="http://www.w3.org/2000/svg">
<g clip-path="url(#clip0_2442_175555)">
<path d="M587.286 0.378906L401.877 56.9368L477.817 253.961L647.22 180.824L587.286 0.378906Z" fill="#FD9880"/>
<path d="M206.035 441.396C150.625 435.892 120.033 416.173 141.035 358.028C141.272 357.387 141.508 356.711 141.744 356.104C187.159 383.893 201.746 424.412 206.035 441.396Z" fill="#FFCB56"/>
<path d="M537.953 427.517H557.841L556.456 380.312L537.953 382.338V427.517Z" fill="#9F57F5"/>
<path d="M564.763 427.517L562.298 362.586L584.381 359.209V427.517H564.763Z" fill="#9F57F5"/>
<path d="M591.844 375.114V427.519H609.605L607.545 372.615L591.844 375.114Z" fill="#9F57F5"/>
<path d="M159.405 265.239C155.488 262.707 151.538 260.175 147.621 257.642C146.304 256.798 145.088 258.891 146.405 259.736C150.322 262.268 154.273 264.8 158.189 267.333C159.506 268.143 160.722 266.084 159.405 265.239Z" fill="#FFCB56"/>
<path d="M367.706 72.6016L353.524 87.7625L374.594 93.7728L367.706 72.6016Z" fill="#9F57F5"/>
<path d="M665.892 313.054C663.63 316.43 661.401 319.807 659.139 323.183C658.261 324.466 660.354 325.682 661.232 324.399C663.495 321.022 665.723 317.646 667.985 314.269C668.83 312.986 666.736 311.771 665.892 313.054Z" fill="#7BAEED"/>
<path d="M506.788 368.428C504.829 366.74 502.871 365.052 500.879 363.363C499.697 362.35 498.009 364.072 499.19 365.052C501.149 366.74 503.107 368.428 505.099 370.117C506.248 371.13 507.97 369.441 506.788 368.428Z" fill="#000200"/>
<path d="M469.477 255.176C469.004 255.176 468.531 254.872 468.362 254.399L394.786 67.167C394.651 66.8631 394.685 66.4917 394.82 66.1878C394.955 65.8839 395.225 65.6475 395.563 65.5462L580.972 8.98833C581.579 8.78573 582.255 9.12339 582.457 9.76494L642.358 190.21C642.561 190.784 642.29 191.426 641.716 191.696L583.166 218.641C582.559 218.911 581.85 218.641 581.579 218.067C581.309 217.459 581.579 216.75 582.153 216.48L639.724 190.007L580.533 11.6558L397.488 67.5047L470.591 253.521C470.827 254.129 470.523 254.838 469.916 255.074C469.747 255.142 469.612 255.176 469.477 255.176Z" fill="#000200"/>
<path d="M549.062 183.962C548.623 183.962 548.184 183.726 547.981 183.287L539.54 166.134H524.514C524.109 166.134 523.738 165.931 523.501 165.594L514.114 151.074L497.501 156.511C496.894 156.713 496.218 156.375 495.982 155.768L485.548 127.168L469.374 130.916C468.868 131.051 468.328 130.815 468.058 130.342L455.564 108.664L444.253 110.758C443.712 110.859 443.138 110.555 442.902 110.015L431.219 80.706C431.084 80.3684 431.118 80.0307 431.253 79.7268C431.422 79.4229 431.692 79.1866 432.029 79.119L505.673 60.6829C506.247 60.5478 506.821 60.8179 507.057 61.3582L516.984 84.2852L531.369 79.1528C531.673 79.0515 532.01 79.0515 532.28 79.1866C532.584 79.3216 532.787 79.5918 532.888 79.8956L541.465 104.815L556.558 99.4461C557.166 99.2435 557.807 99.5137 558.077 100.121L568.241 124.264L583.503 118.456C584.111 118.22 584.786 118.524 585.023 119.098L594.443 140.235L608.456 134.9C609.03 134.664 609.706 134.934 609.976 135.508L617.674 152.324C617.809 152.627 617.809 152.965 617.708 153.269C617.607 153.573 617.37 153.809 617.066 153.944L549.568 183.861C549.4 183.928 549.231 183.962 549.062 183.962ZM525.189 163.703H540.283C540.756 163.703 541.161 163.973 541.363 164.378L549.602 181.16L615.074 152.188L608.355 137.5L594.308 142.835C593.7 143.072 593.025 142.768 592.789 142.194L583.368 121.056L568.072 126.864C567.464 127.1 566.789 126.797 566.519 126.189L556.355 102.046L541.194 107.449C540.891 107.55 540.553 107.55 540.283 107.415C539.979 107.28 539.776 107.01 539.675 106.706L531.098 81.7866L516.816 86.8852C516.208 87.0878 515.566 86.8177 515.296 86.2437L505.301 63.2153L433.988 81.0775L444.793 108.192L455.969 106.098C456.476 105.997 456.982 106.233 457.219 106.672L469.678 128.316L486.021 124.534C486.595 124.399 487.203 124.737 487.439 125.311L497.839 153.809L514.216 148.474C514.722 148.305 515.296 148.508 515.6 148.947L525.189 163.703Z" fill="#000200"/>
<path d="M456.24 108.529C455.734 108.529 455.295 108.225 455.092 107.718C454.856 107.077 455.193 106.401 455.835 106.165L531.471 79.1185C532.112 78.8821 532.787 79.2198 533.024 79.8614C533.26 80.5029 532.923 81.1782 532.281 81.4146L456.645 108.461C456.51 108.495 456.375 108.529 456.24 108.529Z" fill="#000200"/>
<path d="M486.36 126.967C485.853 126.967 485.414 126.663 485.212 126.157C484.975 125.515 485.313 124.84 485.955 124.603L556.66 99.3802C557.302 99.1439 557.977 99.4815 558.214 100.123C558.45 100.765 558.112 101.44 557.471 101.676L486.765 126.899C486.63 126.933 486.495 126.967 486.36 126.967Z" fill="#000200"/>
<path d="M514.654 150.837C514.182 150.837 513.743 150.567 513.54 150.128C513.27 149.52 513.54 148.811 514.182 148.541L583.571 118.456C584.178 118.186 584.888 118.456 585.158 119.097C585.428 119.705 585.158 120.414 584.516 120.684L515.127 150.77C514.958 150.803 514.79 150.837 514.654 150.837Z" fill="#000200"/>
<path d="M540.318 166.132C539.845 166.132 539.406 165.862 539.204 165.389C538.933 164.781 539.237 164.072 539.845 163.802L608.525 134.865C609.133 134.595 609.842 134.899 610.112 135.506C610.382 136.114 610.078 136.823 609.47 137.093L540.791 166.031C540.622 166.098 540.487 166.132 540.318 166.132Z" fill="#000200"/>
<path d="M481.836 207.904C481.397 207.904 480.958 207.668 480.755 207.229L420.483 85.0972C420.348 84.7933 420.314 84.4557 420.449 84.118C420.584 83.8141 420.821 83.544 421.125 83.4427L431.93 79.1544C432.538 78.9181 433.247 79.222 433.483 79.8298C433.719 80.4376 433.416 81.1466 432.808 81.383L423.218 85.1985L482.444 205.203L548.659 181.634C549.266 181.398 549.975 181.735 550.212 182.377C550.448 183.018 550.111 183.694 549.469 183.93L482.241 207.836C482.106 207.87 481.971 207.904 481.836 207.904Z" fill="#000200"/>
<path d="M353.525 252.271C353.356 252.271 353.153 252.237 352.984 252.136C352.377 251.832 352.14 251.123 352.444 250.515L404.241 148.981C404.545 148.373 405.254 148.137 405.862 148.441C406.47 148.745 406.706 149.454 406.402 150.062L354.605 251.596C354.369 252.001 353.964 252.271 353.525 252.271Z" fill="#FF3857"/>
<path d="M400.121 278.473C399.952 278.473 399.75 278.439 399.581 278.338C398.973 278.034 398.737 277.325 399.041 276.717L451.513 170.692C451.817 170.084 452.526 169.848 453.134 170.152C453.741 170.456 453.978 171.165 453.674 171.773L401.202 277.797C400.999 278.236 400.56 278.473 400.121 278.473Z" fill="#FF3857"/>
<path d="M443.038 191.829C442.869 191.829 442.7 191.796 442.531 191.694L395.394 169.071C394.786 168.767 394.55 168.058 394.82 167.45C395.09 166.843 395.833 166.606 396.441 166.876L443.578 189.5C444.186 189.803 444.422 190.513 444.152 191.12C443.916 191.559 443.477 191.829 443.038 191.829Z" fill="#FF3857"/>
<path d="M430.545 216.853C430.376 216.853 430.207 216.819 430.038 216.718L382.901 194.095C382.293 193.791 382.057 193.082 382.327 192.474C382.597 191.866 383.34 191.63 383.948 191.9L431.085 214.523C431.693 214.827 431.929 215.536 431.659 216.144C431.423 216.616 430.984 216.853 430.545 216.853Z" fill="#FF3857"/>
<path d="M417.105 242.751C416.936 242.751 416.767 242.718 416.599 242.616L369.461 219.993C368.854 219.689 368.617 218.98 368.887 218.372C369.158 217.764 369.9 217.528 370.508 217.798L417.645 240.421C418.253 240.725 418.49 241.434 418.219 242.042C417.983 242.481 417.544 242.751 417.105 242.751Z" fill="#FF3857"/>
<path d="M406.773 263.583C406.604 263.583 406.435 263.55 406.267 263.448L359.129 240.825C358.522 240.521 358.285 239.812 358.555 239.204C358.859 238.597 359.568 238.36 360.176 238.63L407.313 261.253C407.921 261.557 408.157 262.266 407.887 262.874C407.651 263.313 407.212 263.583 406.773 263.583Z" fill="#FF3857"/>
<path d="M265.598 133.756C235.985 144.393 226.362 156.042 234.027 178.192C240.341 196.493 243.684 200.275 243.684 200.275L245.136 200.106C248.917 198.215 251.146 197.878 254.826 196.628C255.13 195.447 255.063 197.945 255.367 196.763C256.717 193.151 248.445 176.977 249.559 168.029C250.504 160.364 256.346 155.333 262.761 151.787C272.216 146.52 283.055 144.156 292.813 139.463C294.839 138.483 298.114 136.458 301.66 134.702C294.467 129.265 283.359 127.374 265.598 133.756Z" fill="#000200"/>
<path d="M311.214 194.231C310.708 194.231 310.269 193.927 310.066 193.42C309.83 192.779 310.168 192.103 310.809 191.867C313.139 191.023 314.861 189.706 315.368 188.322C315.672 187.545 315.57 186.735 315.097 185.89C314.051 183.999 309.256 184.472 307.095 184.979C306.487 185.114 305.879 184.776 305.677 184.202L301.625 172.89C301.389 172.249 301.726 171.574 302.368 171.337C302.976 171.101 303.685 171.439 303.921 172.08L307.635 182.412C309.999 182.007 315.401 181.433 317.225 184.709C318.035 186.16 318.204 187.714 317.664 189.166C316.887 191.259 314.76 193.015 311.653 194.129C311.485 194.197 311.349 194.231 311.214 194.231Z" fill="#000200"/>
<path d="M306.894 168.636L307.772 171.101C308.92 174.275 313.85 172.519 312.702 169.311L311.824 166.846C310.71 163.706 305.746 165.462 306.894 168.636Z" fill="#000200"/>
<path d="M277.179 179.304L278.057 181.769C279.205 184.943 284.135 183.187 282.987 179.979L282.109 177.514C280.995 174.374 276.031 176.13 277.179 179.304Z" fill="#000200"/>
<path d="M277.078 166.779C274.985 167.319 272.993 167.994 271.034 168.906C269.515 169.649 270.933 171.844 272.453 171.101C274.175 170.257 276.032 169.75 277.889 169.244C279.51 168.872 278.699 166.373 277.078 166.779Z" fill="#000200"/>
<path d="M309.19 155.364C307.569 155.397 305.982 155.701 304.361 155.634C302.707 155.532 302.234 158.132 303.922 158.2C305.779 158.301 307.569 157.997 309.426 157.964C311.114 157.93 310.878 155.33 309.19 155.364Z" fill="#000200"/>
<path d="M285.958 268.548C284.202 268.548 282.413 268.312 280.589 267.873C270.122 265.273 256.514 253.928 252.564 230.427C252.53 230.19 252.564 229.954 252.665 229.718L258.473 217.089C246.486 219.318 239.192 215.705 237.943 212.294C237.335 210.64 236.93 208.04 238.382 205.203C239.361 203.245 241.083 201.455 243.514 199.835L236.525 180.419C228.387 157.762 237.504 142.568 265.226 132.607C289.807 123.76 305.374 128.994 312.735 148.544C314.288 152.664 315.807 156.614 317.259 160.43C331.306 197.235 339.781 219.453 329.347 231.777C324.147 237.923 316.314 241.063 309.999 243.562L301.22 260.748C297.337 265.881 291.968 268.548 285.958 268.548ZM254.995 230.393C258.81 252.476 271.439 263.146 281.163 265.543C288.356 267.333 294.906 265.104 299.194 259.499L308.041 242.11C308.176 241.84 308.412 241.637 308.683 241.536L309.088 241.367C315.47 238.834 322.695 235.93 327.524 230.224C337.012 218.98 328.74 197.268 314.997 161.308C313.545 157.492 312.025 153.542 310.472 149.422C303.651 131.357 289.098 126.596 266.002 134.903C239.462 144.425 231.089 158.235 238.753 179.643L245.574 198.619C247.87 197.404 250.605 196.289 253.847 195.31C254.488 195.107 255.164 195.479 255.332 196.12C255.535 196.762 255.164 197.437 254.522 197.606C247.06 199.868 242.231 202.874 240.475 206.318C239.631 208.006 239.53 209.728 240.172 211.518C240.914 213.577 247.735 217.258 260.229 214.287C260.667 214.185 261.14 214.32 261.444 214.692C261.748 215.063 261.816 215.536 261.613 215.975L254.995 230.393Z" fill="#000200"/>
<path d="M301.458 122.139C299.364 120.822 293.151 118.053 287.58 120.585C276.066 125.785 275.188 128.655 268.131 132.167C264.822 133.822 259.993 135.544 259.926 139.933C259.926 140.44 259.993 140.912 260.094 141.351C258.44 143.445 257.157 145.91 256.076 148.24C255.941 148.51 255.941 148.746 255.975 148.982C255.772 149.219 255.536 149.489 255.333 149.725C254.32 149.388 253.071 150.468 253.78 151.616C259.25 160.362 271.879 157.086 275.728 148.847C283.292 147.733 290.551 145.066 297.034 140.71C302.201 137.198 310.439 127.777 301.458 122.139Z" fill="#000200"/>
<path d="M316.224 203.366C314.502 204.649 311.868 205.932 309.977 204.277C308.627 203.095 306.635 205.088 307.985 206.269C310.889 208.802 314.772 207.89 317.642 205.797C319.094 204.75 317.676 202.319 316.224 203.366Z" fill="#000200"/>
<path d="M310.236 242.209C310 241.601 309.29 241.297 308.683 241.533C302.335 244.066 294.704 242.816 294.636 242.783C294.197 242.715 293.724 242.884 293.454 243.255C293.184 243.627 293.15 244.1 293.792 245.416L300.14 258.079C300.545 256.627 301.761 255.276 303.179 254.871L308.311 244.201C308.716 244.066 309.155 243.931 309.561 243.762C310.202 243.526 310.472 242.816 310.236 242.209Z" fill="#000200"/>
<path d="M225.345 362.486C225.042 362.486 224.704 362.351 224.501 362.115C224.13 361.709 215.486 351.681 236.758 303.767C237.029 303.159 237.738 302.889 238.345 303.159C238.953 303.43 239.223 304.139 238.953 304.746C218.626 350.533 226.223 360.393 226.291 360.494C226.696 361 226.662 361.743 226.19 362.182C225.92 362.385 225.616 362.486 225.345 362.486Z" fill="#000200"/>
<path d="M277.008 377.241C276.4 377.241 275.86 376.768 275.826 376.16C274.779 365.355 257.761 365.828 257.592 365.862C257.018 365.895 256.579 365.558 256.411 365.085C255.364 362.282 253.676 360.358 251.177 359.277C243.512 355.901 229.634 360.662 217.107 365.794C216.499 366.03 215.79 365.76 215.52 365.119C215.284 364.511 215.554 363.802 216.195 363.532C229.229 358.23 243.681 353.301 252.156 357.049C254.992 358.298 257.052 360.459 258.369 363.43C262.185 363.464 277.109 364.308 278.223 375.924C278.291 376.599 277.818 377.173 277.143 377.241C277.075 377.241 277.042 377.241 277.008 377.241Z" fill="#000200"/>
<path d="M274.138 437.647C273.868 437.647 273.564 437.546 273.361 437.343C255.634 422.081 263.536 391.489 276.063 375.282C276.333 374.944 276.772 374.775 277.177 374.843C277.38 374.877 282.107 375.552 285.315 376.396C285.686 376.497 285.99 376.767 286.125 377.105C286.26 377.477 286.226 377.882 286.024 378.186C263.941 412.897 283.322 434.676 284.167 435.588C284.605 436.094 284.572 436.837 284.099 437.276C283.626 437.715 282.85 437.681 282.411 437.208C282.208 436.972 261.442 413.809 283.12 378.287C281.026 377.814 278.696 377.443 277.548 377.274C265.865 392.874 258.538 421.372 274.948 435.486C275.455 435.925 275.522 436.668 275.084 437.175C274.813 437.512 274.476 437.647 274.138 437.647Z" fill="#000200"/>
<path d="M361.862 411.547C359.971 411.547 357.911 411.514 355.683 411.378C355.008 411.345 354.501 410.771 354.535 410.129C354.569 409.454 355.109 408.914 355.784 408.981C371.789 409.791 378.272 407.293 379.826 406.584C379.994 405.807 380.197 404.085 379.15 402.734C377.665 400.81 374.153 399.966 368.919 400.371C359.836 401.046 353.286 398.851 351.428 394.529C350.213 391.727 351.26 388.485 354.299 385.716C358.215 382.103 359.87 382.576 362.132 385.007C363.382 386.358 364.935 388.046 368.919 388.249C372.498 388.451 373.444 387.81 373.511 387.607C373.714 386.966 371.789 383.724 360.849 377.579C353.387 373.392 342.886 374.844 329.548 376.701C317.426 378.389 302.333 380.483 284.943 378.794C284.268 378.727 283.795 378.153 283.863 377.477C283.93 376.802 284.504 376.329 285.18 376.397C302.299 378.051 317.257 375.958 329.244 374.303C343.021 372.413 353.893 370.893 362.065 375.452C377.158 383.927 376.179 387.168 375.875 388.249C375.065 390.984 370.371 390.714 368.852 390.612C363.888 390.309 361.828 388.08 360.444 386.594C359.127 385.176 358.857 384.872 356.021 387.438C353.758 389.532 352.914 391.693 353.725 393.516C354.805 395.981 359.397 398.615 368.852 397.906C374.997 397.467 379.15 398.581 381.176 401.249C383.371 404.153 382.122 407.63 382.088 407.765C381.987 408.002 381.852 408.204 381.615 408.373C381.278 408.542 376.55 411.547 361.862 411.547Z" fill="#000200"/>
<path d="M356.391 421.743C355.783 421.743 355.243 421.27 355.209 420.629C355.141 419.953 355.648 419.379 356.323 419.346C368.58 418.333 376.178 417.218 377.9 407.966C378.035 407.325 378.642 406.886 379.318 406.987C379.959 407.122 380.398 407.73 380.297 408.405C378.17 419.92 367.669 420.797 356.56 421.743C356.458 421.743 356.424 421.743 356.391 421.743Z" fill="#000200"/>
<path d="M352.273 430.827C351.665 430.827 351.158 430.388 351.091 429.781C350.989 429.105 351.462 428.531 352.137 428.43C354.67 428.092 356.932 427.957 358.958 427.856C366.555 427.417 370.033 427.214 371.553 417.118C371.654 416.477 372.262 416.004 372.937 416.105C373.579 416.207 374.052 416.815 373.95 417.49C372.161 429.544 366.961 429.848 359.127 430.287C357.169 430.388 354.94 430.524 352.509 430.861C352.374 430.827 352.34 430.827 352.273 430.827Z" fill="#000200"/>
<path d="M264.413 437.681C246.112 437.681 231.356 437.073 218.694 435.79C183.274 432.279 162.17 423.331 152.276 407.629C143.666 393.954 143.767 375.383 152.648 350.801L152.952 349.957C153.087 349.586 153.222 349.214 153.357 348.843C183.544 265.981 214.439 229.008 253.439 229.008C253.54 229.008 253.608 229.008 253.709 229.008C254.385 229.008 254.925 229.548 254.891 230.223C254.891 230.899 254.351 231.405 253.675 231.405C253.642 231.405 253.507 231.405 253.405 231.405C215.588 231.405 185.401 267.906 155.585 349.687C155.45 350.059 155.315 350.396 155.18 350.768L154.876 351.612C146.266 375.417 146.064 393.313 154.269 406.313C163.723 421.305 184.253 429.915 218.863 433.359C234.598 434.946 253.642 435.52 278.831 435.149C283.423 435.081 287.441 434.777 292.574 434.372C298.922 433.899 306.789 433.292 318.911 432.954C322.457 432.853 326.07 432.785 329.649 432.718C346.16 432.414 364.833 432.11 366.487 426.977C366.69 426.336 367.365 425.998 368.007 426.201C368.648 426.403 368.986 427.079 368.783 427.72C366.622 434.507 349.503 434.777 329.716 435.149C326.137 435.216 322.524 435.284 319.013 435.385C306.958 435.757 299.091 436.331 292.776 436.803C287.61 437.175 283.558 437.479 278.899 437.58C273.868 437.647 269.039 437.681 264.413 437.681Z" fill="#000200"/>
<path d="M252.662 369.374C252.291 369.374 251.92 369.205 251.683 368.867C251.312 368.327 251.413 367.584 251.953 367.179L256.849 363.667C257.39 363.262 258.132 363.397 258.538 363.937C258.909 364.478 258.808 365.22 258.268 365.626L253.371 369.137C253.135 369.306 252.899 369.374 252.662 369.374Z" fill="#000200"/>
<path d="M414.335 288.098C414.099 288.098 413.863 288.03 413.626 287.862C397.452 276.212 344.946 242.582 316.583 240.657C315.908 240.623 315.401 240.049 315.469 239.374C315.502 238.698 316.11 238.226 316.752 238.26C351.193 240.589 414.403 285.464 415.044 285.903C415.585 286.275 415.72 287.051 415.314 287.592C415.078 287.929 414.707 288.098 414.335 288.098Z" fill="#000200"/>
<path d="M419.401 354.481C396.035 354.481 370.576 347.526 348.965 326.895C348.493 326.422 348.459 325.679 348.932 325.206C349.404 324.734 350.147 324.7 350.62 325.173C395.495 367.954 457.489 350.564 480.484 335.437C493.146 327.097 510.738 303.967 524.886 285.396C532.314 275.638 538.73 267.23 542.579 263.448C544.234 261.828 545.821 260.173 547.34 258.586C553.013 252.643 557.875 247.545 563.244 248.119C566.553 248.49 569.558 251.023 572.496 255.885C577.696 264.529 582.288 265.002 583.571 264.9C584.753 264.833 585.698 264.293 586.103 263.448C586.475 262.604 586.306 261.591 585.563 260.646C581.342 255.142 577.392 242.547 581.275 234.207C583.875 228.636 591.134 230.932 600.353 233.836C606.262 235.693 612.981 237.82 619.599 238.259C625.069 238.63 627.264 237.516 627.467 236.942C627.534 236.773 627.298 236.267 626.42 235.659C624.867 234.579 621.794 233.566 618.552 232.485C615.446 231.472 612.204 230.425 609.638 229.075C590.189 219.046 549.67 206.823 523.636 216.649C496.725 226.812 464.749 260.376 464.411 260.713C464.04 261.085 463.499 261.186 463.027 260.984C457.185 258.282 451.884 257.978 447.19 260.072C437.567 264.394 433.617 277.461 433.583 277.596C433.448 278.069 433.009 278.44 432.502 278.44C432.367 278.44 418.219 279.42 414.37 291.44C414.167 292.082 413.492 292.42 412.85 292.217C412.209 292.014 411.871 291.339 412.074 290.698C415.856 278.913 428.18 276.55 431.523 276.111C432.57 273.072 436.926 262.064 446.211 257.877C451.344 255.547 457.084 255.75 463.263 258.451C467.821 253.758 497.4 223.976 522.792 214.387C549.535 204.291 590.932 216.716 610.753 226.947C613.15 228.197 616.29 229.21 619.329 230.189C622.773 231.303 625.981 232.384 627.838 233.667C630.269 235.389 629.999 237.077 629.763 237.719C628.952 239.981 625.306 241.028 619.464 240.656C612.508 240.217 605.688 238.023 599.644 236.132C590.696 233.295 585.09 231.742 583.47 235.22C580.127 242.412 583.537 253.994 587.488 259.16C588.737 260.815 589.041 262.773 588.298 264.428C587.522 266.116 585.833 267.163 583.74 267.298C581.646 267.399 576.21 266.656 570.47 257.1C567.971 252.913 565.506 250.752 563.041 250.482C558.888 250.01 554.363 254.737 549.163 260.241C547.61 261.861 546.023 263.55 544.335 265.17C540.587 268.817 534.239 277.157 526.878 286.848C512.629 305.588 494.902 328.887 481.902 337.43C469.375 345.635 445.705 354.481 419.401 354.481Z" fill="#000200"/>
<path d="M522.048 292.32C521.913 292.32 521.812 292.287 521.677 292.253C521.305 292.118 483.049 279.624 480.651 242.718C480.618 242.043 481.124 241.469 481.766 241.435C482.407 241.401 483.015 241.908 483.049 242.549C485.345 277.835 522.048 289.822 522.42 289.957C523.061 290.159 523.399 290.835 523.196 291.476C523.028 291.983 522.555 292.32 522.048 292.32Z" fill="#000200"/>
<path d="M517.591 298.092C517.524 298.092 517.456 298.092 517.389 298.092C517.017 298.024 480.685 291.642 475.519 247.341C475.451 246.666 475.924 246.092 476.566 245.991C477.241 245.923 477.815 246.396 477.916 247.038C482.88 289.583 517.456 295.66 517.794 295.694C518.435 295.796 518.908 296.403 518.807 297.079C518.672 297.686 518.165 298.092 517.591 298.092Z" fill="#000200"/>
<path d="M581.308 248.39C580.936 248.39 580.565 248.221 580.329 247.883C579.923 247.343 580.059 246.6 580.599 246.195C580.599 246.195 582.557 244.709 582.794 242.413C582.962 240.826 582.253 239.138 580.734 237.416C580.295 236.909 580.329 236.167 580.835 235.728C581.342 235.289 582.084 235.322 582.523 235.829C584.549 238.091 585.461 240.387 585.191 242.683C584.82 246.06 582.118 248.052 582.017 248.12C581.781 248.322 581.544 248.39 581.308 248.39Z" fill="#000200"/>
<path d="M597.719 272.061C597.415 272.061 597.111 271.993 596.807 271.892C593.903 270.845 593.431 265.24 594.511 260.209C596.098 252.747 593.701 242.482 588.096 232.791C587.758 232.217 587.961 231.474 588.535 231.137C589.109 230.799 589.851 231.001 590.189 231.575C596.064 241.773 598.563 252.679 596.875 260.715C595.76 265.915 596.807 269.326 597.618 269.63C597.989 269.765 599.508 269.089 601.838 264.531C606.43 255.549 601.636 238.497 599.981 236.269C599.644 236.134 599.34 235.796 599.272 235.391C599.137 234.749 599.576 234.108 600.218 233.973C600.623 233.872 601.231 233.973 601.838 234.749C603.898 237.485 609.098 255.583 603.966 265.611C601.805 269.9 599.711 272.061 597.719 272.061Z" fill="#000200"/>
<path d="M584.043 257C583.705 257 583.368 256.865 583.131 256.561C582.692 256.054 582.76 255.311 583.266 254.872C586.913 251.766 592.721 245.688 592.721 242.649C592.721 241.974 593.261 241.434 593.936 241.434C594.612 241.434 595.152 241.974 595.152 242.649C595.152 247.782 585.9 255.818 584.853 256.696C584.583 256.898 584.313 257 584.043 257Z" fill="#000200"/>
<path d="M361.39 377.711C360.85 377.711 360.343 377.34 360.208 376.766L345.689 313.387C345.554 312.78 345.891 312.172 346.465 311.969C347.04 311.767 347.681 312.037 347.951 312.611C352.746 323.078 373.039 341.042 373.242 341.21C373.748 341.649 373.782 342.426 373.343 342.899C372.904 343.405 372.128 343.439 371.655 343C370.946 342.392 357.304 330.304 349.673 319.938L362.606 376.192C362.741 376.834 362.335 377.475 361.694 377.644C361.593 377.678 361.491 377.711 361.39 377.711Z" fill="#000200"/>
<path d="M348.154 316.156L349.505 325.577C349.505 325.577 369.764 340.805 369.967 340.805C370.136 340.839 348.154 316.156 348.154 316.156Z" fill="#000200"/>
<path d="M432.401 288.099C431.726 288.099 431.185 287.559 431.185 286.883V277.294C431.185 276.618 431.726 276.078 432.401 276.078C433.076 276.078 433.616 276.618 433.616 277.294V286.883C433.583 287.559 433.042 288.099 432.401 288.099Z" fill="#000200"/>
<path d="M424.637 433.496C423.995 433.496 423.455 432.99 423.421 432.348C423.388 431.673 423.894 431.133 424.569 431.099L477.616 428.465L475.522 393.416C475.488 393.078 475.623 392.775 475.86 392.504C476.096 392.268 476.4 392.133 476.738 392.133H516.413V344.793C516.413 344.118 516.953 343.578 517.628 343.578H570.134L568.108 296.913C568.074 296.272 568.547 295.731 569.155 295.664L615.11 289.991V255.786C615.11 255.449 615.245 255.145 615.482 254.908C615.718 254.672 616.022 254.571 616.36 254.571L654.718 256.394L652.185 215.639C652.152 214.963 652.658 214.389 653.3 214.355C653.975 214.355 654.549 214.828 654.583 215.47L657.183 257.576C657.216 257.914 657.081 258.251 656.845 258.488C656.609 258.724 656.271 258.859 655.933 258.859L617.474 257.036V291.105C617.474 291.713 617.035 292.22 616.427 292.287L570.506 297.926L572.532 344.726C572.532 345.063 572.43 345.367 572.194 345.604C571.958 345.84 571.654 345.975 571.316 345.975H518.742V393.315C518.742 393.99 518.202 394.53 517.527 394.53H477.919L480.013 429.512C480.047 429.85 479.912 430.153 479.709 430.39C479.506 430.626 479.203 430.761 478.865 430.795L424.603 433.496C424.671 433.496 424.637 433.496 424.637 433.496Z" fill="#000200"/>
<path d="M665.421 216.786H639.793C639.287 216.786 638.848 216.482 638.679 216.043C638.51 215.57 638.611 215.064 638.983 214.726L652.557 201.861C652.793 201.625 653.097 201.523 653.435 201.523C653.772 201.523 654.042 201.659 654.279 201.895L666.299 214.76C666.637 215.097 666.705 215.638 666.536 216.077C666.333 216.516 665.894 216.786 665.421 216.786ZM642.832 214.388H662.619L653.333 204.427L642.832 214.388Z" fill="#000200"/>
<path d="M428.115 375.957C427.878 375.721 427.574 375.586 427.237 375.586H383.409C383.071 375.586 382.767 375.721 382.531 375.957C382.294 376.194 382.193 376.531 382.193 376.869L385.84 432.38C385.873 433.022 386.414 433.494 387.055 433.494H424.637C425.278 433.494 425.819 432.988 425.852 432.346L428.452 376.835C428.452 376.531 428.317 376.194 428.115 375.957ZM420.652 414.383C420.652 415.058 420.112 415.599 419.437 415.599C418.761 415.599 418.221 415.058 418.221 414.383V391.996C418.221 391.321 418.761 390.781 419.437 390.781C420.112 390.781 420.652 391.321 420.652 391.996V414.383Z" fill="#000200"/>
<path d="M384.119 388.08H374.597C373.922 388.08 373.381 387.539 373.381 386.864C373.381 386.189 373.922 385.648 374.597 385.648H384.119C384.794 385.648 385.335 386.189 385.335 386.864C385.335 387.539 384.794 388.08 384.119 388.08Z" fill="#000200"/>
<path d="M360.347 399.965C359.874 399.965 359.435 399.695 359.267 399.256C359.165 399.019 356.7 393.178 362.947 387.1C363.42 386.627 364.196 386.661 364.635 387.134C365.108 387.606 365.074 388.383 364.602 388.822C359.604 393.684 361.36 398.108 361.461 398.276C361.731 398.884 361.428 399.593 360.82 399.863C360.651 399.931 360.482 399.965 360.347 399.965Z" fill="#000200"/>
<path d="M372.434 420.089C371.759 420.089 371.219 419.548 371.219 418.873C371.219 418.198 371.759 417.658 372.434 417.658C383.949 417.624 386.11 417.658 386.211 417.658C386.886 417.658 387.393 418.232 387.393 418.907C387.393 419.582 386.852 420.122 386.143 420.089C386.11 420.089 383.881 420.021 372.434 420.089Z" fill="#000200"/>
</g>
<defs>
<clipPath id="clip0_2442_175555">
<rect width="803" height="441" fill="white"/>
</clipPath>
</defs>
</svg>
