<svg width="212" height="26" viewBox="0 0 212 26" fill="none" xmlns="http://www.w3.org/2000/svg">
<g clip-path="url(#clip0_2749_95286)">
<path d="M109.5 0H2.7975C2.05556 0 1.344 0.294736 0.819369 0.819369C0.294736 1.344 0 2.05556 0 2.7975L0 22.7025C0 23.4444 0.294736 24.156 0.819369 24.6806C1.344 25.2053 2.05556 25.5 2.7975 25.5H109.5C110.296 25.5 111.059 25.1839 111.621 24.6213C112.184 24.0587 112.5 23.2956 112.5 22.5V3C112.5 2.20435 112.184 1.44129 111.621 0.87868C111.059 0.316071 110.296 0 109.5 0V0ZM111.75 22.5C111.75 23.0967 111.513 23.669 111.091 24.091C110.669 24.5129 110.097 24.75 109.5 24.75H2.7975C2.25508 24.748 1.73544 24.5317 1.35188 24.1481C0.968329 23.7646 0.751976 23.2449 0.75 22.7025V2.7975C0.751976 2.25508 0.968329 1.73544 1.35188 1.35188C1.73544 0.968329 2.25508 0.751976 2.7975 0.75H109.5C110.097 0.75 110.669 0.987053 111.091 1.40901C111.513 1.83097 111.75 2.40326 111.75 3V22.5Z" fill="black"/>
<path d="M12.8026 8.42969H9.57764V16.4997H11.0176V13.3797H12.8026C14.6026 13.3797 15.7276 12.5097 15.7276 10.9047C15.7276 9.29969 14.6026 8.42969 12.8026 8.42969ZM12.7276 12.1797H11.0176V9.70469H12.7501C13.7851 9.70469 14.3326 10.1472 14.3326 10.9422C14.3326 11.7372 13.7626 12.1422 12.7501 12.1422L12.7276 12.1797Z" fill="black"/>
<path d="M18.8249 10.5002C18.4306 10.4956 18.0397 10.5736 17.6773 10.7291C17.315 10.8845 16.9891 11.1141 16.7207 11.403C16.4523 11.6918 16.2473 12.0336 16.1189 12.4065C15.9904 12.7793 15.9414 13.1748 15.9749 13.5677C15.9397 13.9627 15.9872 14.3608 16.1142 14.7365C16.2413 15.1122 16.4452 15.4573 16.7129 15.7499C16.9806 16.0425 17.3063 16.2762 17.6693 16.4361C18.0323 16.5959 18.4245 16.6785 18.8211 16.6785C19.2177 16.6785 19.61 16.5959 19.973 16.4361C20.3359 16.2762 20.6616 16.0425 20.9293 15.7499C21.1971 15.4573 21.4009 15.1122 21.528 14.7365C21.6551 14.3608 21.7025 13.9627 21.6674 13.5677C21.702 13.1752 21.654 12.7798 21.5264 12.407C21.3988 12.0342 21.1945 11.6923 20.9267 11.4033C20.6589 11.1142 20.3335 10.8846 19.9715 10.729C19.6095 10.5735 19.2189 10.4955 18.8249 10.5002V10.5002ZM18.8249 15.5027C17.9099 15.5027 17.3249 14.7527 17.3249 13.5677C17.3249 12.3827 17.8949 11.6327 18.8249 11.6327C19.7549 11.6327 20.3249 12.3827 20.3249 13.5677C20.3249 14.7527 19.7324 15.4952 18.8249 15.4952V15.5027Z" fill="black"/>
<path d="M27.585 14.5127L26.5275 10.5977H25.4175L24.3675 14.5127L23.3025 10.5977H21.915L23.6925 16.5077H24.8625L25.9425 12.6377L27.0225 16.5077H28.1925L29.97 10.5977H28.635L27.585 14.5127Z" fill="black"/>
<path d="M32.9999 10.5C32.6108 10.5072 32.2272 10.5935 31.8724 10.7535C31.5176 10.9135 31.199 11.1439 30.936 11.4308C30.673 11.7176 30.471 12.055 30.3423 12.4223C30.2136 12.7896 30.1609 13.1792 30.1874 13.5675C30.1561 13.9618 30.2074 14.3583 30.338 14.7317C30.4687 15.105 30.6758 15.447 30.9462 15.7357C31.2165 16.0244 31.5442 16.2535 31.9081 16.4084C32.2721 16.5632 32.6644 16.6404 33.0599 16.635C33.6037 16.6643 34.1429 16.5223 34.6017 16.229C35.0605 15.9357 35.4158 15.5058 35.6174 15L34.4999 14.535C34.4122 14.8248 34.2286 15.0762 33.9792 15.2479C33.7298 15.4196 33.4294 15.5015 33.1274 15.48C32.9123 15.4851 32.6983 15.4466 32.4986 15.3666C32.2988 15.2866 32.1173 15.1669 31.9652 15.0148C31.813 14.8626 31.6933 14.6811 31.6133 14.4813C31.5334 14.2816 31.4948 14.0676 31.4999 13.8525H35.6399V13.4025C35.6549 11.7825 34.7399 10.5 32.9999 10.5ZM31.5524 12.8475C31.605 12.5031 31.7806 12.1894 32.0468 11.9647C32.3129 11.7399 32.6516 11.6192 32.9999 11.625C33.1654 11.611 33.332 11.6324 33.4886 11.6878C33.6452 11.7432 33.7882 11.8313 33.9081 11.9462C34.028 12.0612 34.122 12.2003 34.184 12.3544C34.246 12.5085 34.2744 12.6741 34.2674 12.84L31.5524 12.8475Z" fill="black"/>
<path d="M38.0175 11.4756V10.5981H36.6675V16.5006H38.0175V13.4031C38.0055 13.203 38.036 13.0026 38.1071 12.8151C38.1783 12.6277 38.2883 12.4575 38.4301 12.3157C38.5719 12.1739 38.7421 12.0639 38.9295 11.9927C39.117 11.9216 39.3174 11.8911 39.5175 11.9031C39.6823 11.8914 39.8477 11.8914 40.0125 11.9031V10.5531C39.9075 10.5531 39.7875 10.5531 39.63 10.5531C39.301 10.536 38.9741 10.6139 38.6882 10.7775C38.4023 10.9411 38.1695 11.1834 38.0175 11.4756V11.4756Z" fill="black"/>
<path d="M43.11 10.5C42.7209 10.5072 42.3373 10.5935 41.9825 10.7535C41.6277 10.9135 41.3091 11.1439 41.0461 11.4308C40.7831 11.7176 40.5811 12.055 40.4524 12.4223C40.3237 12.7896 40.271 13.1792 40.2975 13.5675C40.2662 13.9618 40.3175 14.3583 40.4481 14.7317C40.5788 15.105 40.7859 15.447 41.0563 15.7357C41.3266 16.0244 41.6543 16.2535 42.0182 16.4084C42.3822 16.5632 42.7745 16.6404 43.17 16.635C43.7088 16.6579 44.2414 16.5129 44.6941 16.22C45.1469 15.9271 45.4975 15.5008 45.6975 15L44.5425 14.5575C44.4548 14.8473 44.2712 15.0987 44.0218 15.2704C43.7724 15.4422 43.472 15.524 43.17 15.5025C42.9593 15.5006 42.751 15.4568 42.5574 15.3736C42.3637 15.2905 42.1885 15.1697 42.042 15.0183C41.8954 14.8668 41.7805 14.6878 41.7037 14.4915C41.627 14.2952 41.59 14.0857 41.595 13.875H45.75V13.425C45.75 11.7825 44.82 10.5 43.11 10.5ZM41.6625 12.8475C41.7165 12.5058 41.8918 12.1949 42.1562 11.9718C42.4207 11.7487 42.7566 11.6283 43.1025 11.6325C43.268 11.6185 43.4346 11.6399 43.5912 11.6953C43.7478 11.7507 43.8908 11.8388 44.0107 11.9537C44.1306 12.0687 44.2246 12.2078 44.2866 12.3619C44.3486 12.516 44.377 12.6816 44.37 12.8475H41.6625Z" fill="black"/>
<path d="M50.6701 11.2497C50.4619 11.0055 50.2015 10.8112 49.9081 10.6814C49.6147 10.5516 49.2958 10.4895 48.9751 10.4997C47.3176 10.4997 46.3726 11.8872 46.3726 13.5672C46.3726 15.2472 47.3176 16.6347 48.9751 16.6347C49.296 16.6466 49.6154 16.5852 49.9091 16.4553C50.2028 16.3253 50.463 16.1302 50.6701 15.8847V16.4997H52.0201V8.42969H50.6701V11.2497ZM50.6701 13.7622C50.7003 13.976 50.684 14.1939 50.6223 14.4009C50.5606 14.6078 50.4549 14.7991 50.3125 14.9614C50.1701 15.1238 49.9942 15.2535 49.7971 15.3416C49.5999 15.4298 49.386 15.4743 49.1701 15.4722C48.1876 15.4722 47.6701 14.7222 47.6701 13.5822C47.6701 12.4422 48.1951 11.6922 49.1701 11.6922C50.0026 11.6922 50.6701 12.2997 50.6701 13.4097V13.7622Z" fill="black"/>
<path d="M59.4824 10.4997C59.1557 10.4854 58.83 10.5455 58.5299 10.6754C58.2298 10.8053 57.9631 11.0017 57.7499 11.2497V8.42969H56.3999V16.4997H57.7499V15.8772C57.9592 16.122 58.2209 16.3165 58.5156 16.4464C58.8103 16.5762 59.1305 16.638 59.4524 16.6272C61.1024 16.6272 62.0474 15.2322 62.0474 13.5597C62.0474 11.8872 61.1324 10.4997 59.4824 10.4997ZM59.2499 15.4497C59.0339 15.4518 58.8201 15.4073 58.6229 15.3191C58.4257 15.231 58.2499 15.1013 58.1075 14.9389C57.9651 14.7766 57.8594 14.5853 57.7977 14.3784C57.7359 14.1714 57.7197 13.9535 57.7499 13.7397V13.3872C57.7499 12.2772 58.3799 11.6697 59.2499 11.6697C60.2249 11.6697 60.7499 12.4197 60.7499 13.5597C60.7499 14.6997 60.1874 15.4497 59.2499 15.4497Z" fill="black"/>
<path d="M65.1977 14.7452L63.7502 10.5977H62.3252L64.5002 16.2902L64.2752 16.8452C64.237 17.0353 64.1265 17.2032 63.9671 17.3137C63.8077 17.4242 63.6117 17.4686 63.4202 17.4377C63.2704 17.4486 63.12 17.4486 62.9702 17.4377V18.5702C63.1514 18.5971 63.3345 18.6097 63.5177 18.6077C63.9859 18.6417 64.4513 18.5101 64.8324 18.236C65.2135 17.9618 65.4861 17.5624 65.6027 17.1077L68.0327 10.6427H66.6152L65.1977 14.7452Z" fill="black"/>
<path d="M93.7501 9.3223C93.454 9.32059 93.1605 9.37735 92.8863 9.48932C92.6122 9.60129 92.3629 9.76627 92.1526 9.9748L92.0476 9.4573H90.2551V19.1473L92.2951 18.7048V16.3573C92.7009 16.6971 93.2134 16.883 93.7426 16.8823C95.1976 16.8823 96.5326 15.6898 96.5326 13.0498C96.5326 10.6348 95.1826 9.3223 93.7501 9.3223ZM93.2626 15.0448C93.0837 15.0551 92.9047 15.0255 92.7387 14.958C92.5726 14.8906 92.4237 14.787 92.3026 14.6548V11.5723C92.4242 11.4353 92.5748 11.3272 92.7435 11.2558C92.9122 11.1844 93.0947 11.1516 93.2776 11.1598C94.0276 11.1598 94.5376 12.0073 94.5376 13.0948C94.5376 14.1823 94.0201 15.0448 93.2626 15.0448Z" fill="black"/>
<path d="M100.298 9.32227C98.3326 9.32227 97.1401 11.0173 97.1401 13.1548C97.1401 15.6823 98.5501 16.9648 100.56 16.9648C101.345 16.9776 102.119 16.7891 102.81 16.4173V14.7298C102.183 15.0463 101.488 15.2059 100.785 15.1948C99.9751 15.1948 99.2851 14.9023 99.1801 13.9198H103.215C103.215 13.8073 103.215 13.3648 103.215 13.1698C103.283 11.0173 102.263 9.32227 100.298 9.32227ZM99.1951 12.3748C99.1951 11.4298 99.7726 11.0323 100.283 11.0323C100.793 11.0323 101.333 11.4298 101.333 12.3748H99.1951Z" fill="black"/>
<path d="M84.7501 10.0205L84.6226 9.40551H82.8826V16.688H84.8926V11.753C85.0741 11.5326 85.3186 11.3729 85.5933 11.2951C85.8681 11.2174 86.16 11.2254 86.4301 11.318V9.40551C86.1232 9.28531 85.783 9.28149 85.4736 9.39477C85.1641 9.50806 84.9068 9.73062 84.7501 10.0205V10.0205Z" fill="black"/>
<path d="M74.595 11.5951C74.595 11.2651 74.865 11.1376 75.2925 11.1376C76.001 11.1528 76.6954 11.338 77.3175 11.6776V9.70507C76.6744 9.44505 75.9861 9.31504 75.2925 9.32258C73.635 9.32258 72.5325 10.2076 72.5325 11.6926C72.5325 14.0176 75.6375 13.6426 75.6375 14.6401C75.6375 15.0301 75.3075 15.1576 74.8875 15.1576C74.0951 15.1113 73.3245 14.8801 72.6375 14.4826V16.5001C73.3456 16.8159 74.1121 16.9794 74.8875 16.9801C76.5825 16.9801 77.7525 16.1176 77.7525 14.6101C77.715 12.0901 74.595 12.5401 74.595 11.5951Z" fill="black"/>
<path d="M80.4601 7.67969L78.4726 8.11469V14.8122C78.4623 15.0944 78.5097 15.3758 78.6119 15.6391C78.7141 15.9024 78.8689 16.1421 79.0668 16.3436C79.2648 16.5451 79.5017 16.704 79.7632 16.8108C80.0247 16.9176 80.3052 16.97 80.5876 16.9647C81.0803 16.9867 81.5712 16.8916 82.0201 16.6872V14.9997C81.7576 15.1122 80.4751 15.4947 80.4751 14.2497V11.2497H82.0201V9.49469H80.4751L80.4601 7.67969Z" fill="black"/>
<path d="M87.1875 8.77504L89.235 8.34754V6.72754L87.1875 7.15504V8.77504Z" fill="black"/>
<path d="M89.235 9.45801H87.1875V16.688H89.235V9.45801Z" fill="black"/>
</g>
<g clip-path="url(#clip1_2749_95286)">
<path d="M146.542 7.50098C144.242 7.50098 142.187 8.69318 142.187 10.8959C142.187 13.4219 145.832 13.5964 145.832 14.8655C145.832 15.3998 145.22 15.8781 144.174 15.8781C142.69 15.8781 141.58 15.2098 141.58 15.2098L141.106 17.4325C141.106 17.4325 142.383 17.9971 144.08 17.9971C146.595 17.9971 148.574 16.7463 148.574 14.506C148.574 11.8367 144.913 11.6674 144.913 10.4896C144.913 10.071 145.416 9.61235 146.459 9.61235C147.635 9.61235 148.595 10.0984 148.595 10.0984L149.06 7.9516C149.06 7.9516 148.015 7.50098 146.542 7.50098V7.50098ZM125.498 7.663L125.442 7.98705C125.442 7.98705 126.41 8.16415 127.282 8.51742C128.404 8.92252 128.484 9.15835 128.673 9.89082L130.732 17.83H133.493L137.746 7.663H134.992L132.259 14.5756L131.144 8.71615C131.041 8.04555 130.523 7.663 129.889 7.663H125.498V7.663ZM138.854 7.663L136.693 17.83H139.319L141.473 7.663H138.854V7.663ZM153.503 7.663C152.869 7.663 152.534 8.00209 152.288 8.59464L148.44 17.83H151.194L151.727 16.2908H155.083L155.407 17.83H157.837L155.717 7.663H153.503V7.663ZM153.861 10.4098L154.678 14.225H152.49L153.861 10.4098Z" fill="#1434CB"/>
</g>
<rect x="122.246" y="0.745897" width="38.7867" height="24.0082" rx="2.23769" stroke="#ECECF3" stroke-width="1.49179"/>
<g clip-path="url(#clip2_2749_95286)">
<path d="M193.751 7.64648H188.069V17.8561H193.751V7.64648Z" fill="#FF5F00"/>
<path d="M188.43 12.7508C188.429 11.7676 188.652 10.797 189.081 9.91258C189.511 9.02816 190.136 8.25308 190.91 7.64602C189.952 6.89313 188.802 6.42491 187.59 6.2949C186.379 6.16488 185.155 6.3783 184.06 6.91077C182.964 7.44325 182.04 8.27329 181.393 9.30602C180.747 10.3388 180.404 11.5325 180.404 12.7508C180.404 13.9692 180.747 15.1629 181.393 16.1957C182.04 17.2284 182.964 18.0584 184.06 18.5909C185.155 19.1234 186.379 19.3368 187.59 19.2068C188.802 19.0768 189.952 18.6085 190.91 17.8556C190.136 17.2486 189.511 16.4735 189.081 15.5891C188.652 14.7047 188.429 13.7341 188.43 12.7508V12.7508Z" fill="#EB001B"/>
<path d="M201.415 12.7508C201.415 13.9691 201.072 15.1629 200.426 16.1956C199.779 17.2284 198.856 18.0584 197.76 18.5909C196.664 19.1234 195.441 19.3368 194.229 19.2068C193.018 19.0768 191.867 18.6085 190.91 17.8556C191.682 17.248 192.307 16.4728 192.737 15.5885C193.166 14.7042 193.39 13.7339 193.39 12.7508C193.39 11.7677 193.166 10.7975 192.737 9.91318C192.307 9.0289 191.682 8.25369 190.91 7.64602C191.867 6.89313 193.018 6.42491 194.229 6.29489C195.441 6.16488 196.664 6.37831 197.76 6.91079C198.856 7.44327 199.779 8.27331 200.426 9.30604C201.072 10.3388 201.415 11.5325 201.415 12.7508V12.7508Z" fill="#F79E1B"/>
<path d="M200.795 16.7735V16.5645H200.88V16.5219H200.665V16.5645H200.749V16.7735H200.795ZM201.212 16.7735V16.5215H201.146L201.071 16.6948L200.995 16.5215H200.929V16.7735H200.976V16.5834L201.047 16.7473H201.095L201.166 16.583V16.7735H201.212Z" fill="#F79E1B"/>
</g>
<rect x="171.524" y="0.745897" width="38.7867" height="24.0082" rx="2.23769" stroke="#ECECF3" stroke-width="1.49179"/>
<defs>
<clipPath id="clip0_2749_95286">
<rect width="112.5" height="25.5" fill="white"/>
</clipPath>
<clipPath id="clip1_2749_95286">
<rect width="32.427" height="10.5285" fill="white" transform="translate(125.426 7.48535)"/>
</clipPath>
<clipPath id="clip2_2749_95286">
<rect width="27.4884" height="19.4791" fill="white" transform="translate(177.174 3.00977)"/>
</clipPath>
</defs>
</svg>
